<?xml version="1.0" encoding="UTF-8"?>
<!DOCTYPE svg PUBLIC "-//W3C//DTD SVG 1.1//EN" "http://www.w3.org/Graphics/SVG/1.1/DTD/svg11.dtd">
<svg xmlns="http://www.w3.org/2000/svg" version="1.1" width="32px" height="32px" style="shape-rendering:geometricPrecision; text-rendering:geometricPrecision; image-rendering:optimizeQuality; fill-rule:evenodd; clip-rule:evenodd" xmlns:xlink="http://www.w3.org/1999/xlink">
<g><path style="opacity:0.889" fill="#fe7e26" d="M 8.5,0.5 C 15.5079,0.333711 22.5079,0.500377 29.5,1C 26.8144,8.20773 23.981,15.3744 21,22.5C 16.7444,29.1727 10.9111,31.1727 3.5,28.5C 1.34246,21.9179 3.67579,19.7512 10.5,22C 11.1905,23.0674 11.6905,24.2341 12,25.5C 15.3121,19.0719 18.1454,12.4052 20.5,5.5C 16.1144,4.205 11.781,4.37167 7.5,6C 6.54943,6.71752 6.38277,7.55085 7,8.5C 13.6058,5.68214 16.2725,7.68214 15,14.5C 5.84721,17.9462 1.84721,14.9462 3,5.5C 4.35157,3.25103 6.18491,1.58437 8.5,0.5 Z"/></g>
</svg>
